name rise32.9588peak41.5061fall63.4684.mot
datacolumns 19
datarows 30
range 12.90662000000000 12.95495100000000
endheader
time	ground_force1_vx	ground_force1_vy	ground_force1_vz	ground_force1_px	ground_force1_py	ground_force1_pz	ground_force2_vx	ground_force2_vy	ground_force2_vz	ground_force2_px	ground_force2_py	ground_force2_pz	ground_torque1_x	ground_torque1_y	ground_torque1_z	ground_torque2_x	ground_torque2_y	ground_torque2_z	
12.90662000000000	15.87809400000000	695.98224000000005	37.88247800000000	0.21335000000000	0.00000000000000	0.11125900000000	0.00000000000000	0.00000000000000	0.00000000000000	0.00000000000000	0.00000000000000	0.00000000000000	0.00000000000000	12.83826500000000	0.00000000000000	0.00000000000000	0.00000000000000	0.00000000000000	
12.90828900000000	15.51121200000000	696.65510700000004	37.91664700000000	0.21231500000000	0.00000000000000	0.11124600000000	0.00000000000000	0.00000000000000	0.00000000000000	0.00000000000000	0.00000000000000	0.00000000000000	0.00000000000000	12.89161300000000	0.00000000000000	0.00000000000000	0.00000000000000	0.00000000000000	
12.90994900000000	15.13365800000000	697.38471100000004	37.95317200000000	0.21125900000000	0.00000000000000	0.11123300000000	0.00000000000000	0.00000000000000	0.00000000000000	0.00000000000000	0.00000000000000	0.00000000000000	0.00000000000000	12.94743700000000	0.00000000000000	0.00000000000000	0.00000000000000	0.00000000000000	
12.91161400000000	14.74547600000000	698.17071399999998	37.99187900000000	0.21018500000000	0.00000000000000	0.11122000000000	0.00000000000000	0.00000000000000	0.00000000000000	0.00000000000000	0.00000000000000	0.00000000000000	0.00000000000000	13.00563900000000	0.00000000000000	0.00000000000000	0.00000000000000	0.00000000000000	
12.91328700000000	14.34673300000000	699.01280299999996	38.03260400000000	0.20909400000000	0.00000000000000	0.11120700000000	0.00000000000000	0.00000000000000	0.00000000000000	0.00000000000000	0.00000000000000	0.00000000000000	0.00000000000000	13.06611700000000	0.00000000000000	0.00000000000000	0.00000000000000	0.00000000000000	
12.91495400000000	13.93752000000000	699.91069200000004	38.07519600000000	0.20798600000000	0.00000000000000	0.11119400000000	0.00000000000000	0.00000000000000	0.00000000000000	0.00000000000000	0.00000000000000	0.00000000000000	0.00000000000000	13.12877500000000	0.00000000000000	0.00000000000000	0.00000000000000	0.00000000000000	
12.91662000000000	13.51794700000000	700.86411299999997	38.11951200000000	0.20686400000000	0.00000000000000	0.11118000000000	0.00000000000000	0.00000000000000	0.00000000000000	0.00000000000000	0.00000000000000	0.00000000000000	0.00000000000000	13.19351800000000	0.00000000000000	0.00000000000000	0.00000000000000	0.00000000000000	
12.91828200000000	13.08814800000000	701.87282300000004	38.16542500000000	0.20572700000000	0.00000000000000	0.11116600000000	0.00000000000000	0.00000000000000	0.00000000000000	0.00000000000000	0.00000000000000	0.00000000000000	0.00000000000000	13.26025100000000	0.00000000000000	0.00000000000000	0.00000000000000	0.00000000000000	
12.91995500000000	12.64827500000000	702.93659200000002	38.21281700000000	0.20457800000000	0.00000000000000	0.11115100000000	0.00000000000000	0.00000000000000	0.00000000000000	0.00000000000000	0.00000000000000	0.00000000000000	0.00000000000000	13.32888400000000	0.00000000000000	0.00000000000000	0.00000000000000	0.00000000000000	
12.92162200000000	12.19850100000000	704.05520300000001	38.26158500000000	0.20341800000000	0.00000000000000	0.11113600000000	0.00000000000000	0.00000000000000	0.00000000000000	0.00000000000000	0.00000000000000	0.00000000000000	0.00000000000000	13.39932600000000	0.00000000000000	0.00000000000000	0.00000000000000	0.00000000000000	
12.92328400000000	11.73901300000000	705.22845199999995	38.31163700000000	0.20224800000000	0.00000000000000	0.11112100000000	0.00000000000000	0.00000000000000	0.00000000000000	0.00000000000000	0.00000000000000	0.00000000000000	0.00000000000000	13.47148900000000	0.00000000000000	0.00000000000000	0.00000000000000	0.00000000000000	
12.92495000000000	11.27001900000000	706.45613600000001	38.36289600000000	0.20107000000000	0.00000000000000	0.11110500000000	0.00000000000000	0.00000000000000	0.00000000000000	0.00000000000000	0.00000000000000	0.00000000000000	0.00000000000000	13.54528700000000	0.00000000000000	0.00000000000000	0.00000000000000	0.00000000000000	
12.92661800000000	10.79173800000000	707.73805300000004	38.41529800000000	0.19988500000000	0.00000000000000	0.11108800000000	0.00000000000000	0.00000000000000	0.00000000000000	0.00000000000000	0.00000000000000	0.00000000000000	0.00000000000000	13.62063500000000	0.00000000000000	0.00000000000000	0.00000000000000	0.00000000000000	
12.92828800000000	10.30440700000000	709.07399799999996	38.46879100000000	0.19869400000000	0.00000000000000	0.11107000000000	0.00000000000000	0.00000000000000	0.00000000000000	0.00000000000000	0.00000000000000	0.00000000000000	0.00000000000000	13.69744900000000	0.00000000000000	0.00000000000000	0.00000000000000	0.00000000000000	
12.92995000000000	9.80827400000000	710.46375399999999	38.52333700000000	0.19749800000000	0.00000000000000	0.11105200000000	0.00000000000000	0.00000000000000	0.00000000000000	0.00000000000000	0.00000000000000	0.00000000000000	0.00000000000000	13.77564900000000	0.00000000000000	0.00000000000000	0.00000000000000	0.00000000000000	
12.93161600000000	9.30360300000000	711.90708800000004	38.57891100000000	0.19629900000000	0.00000000000000	0.11103400000000	0.00000000000000	0.00000000000000	0.00000000000000	0.00000000000000	0.00000000000000	0.00000000000000	0.00000000000000	13.85515400000000	0.00000000000000	0.00000000000000	0.00000000000000	0.00000000000000	
12.93328700000000	8.79066400000000	713.40374599999996	38.63550100000000	0.19509800000000	0.00000000000000	0.11101400000000	0.00000000000000	0.00000000000000	0.00000000000000	0.00000000000000	0.00000000000000	0.00000000000000	0.00000000000000	13.93588300000000	0.00000000000000	0.00000000000000	0.00000000000000	0.00000000000000	
12.93494900000000	8.26974300000000	714.95344599999999	38.69310700000000	0.19389600000000	0.00000000000000	0.11099400000000	0.00000000000000	0.00000000000000	0.00000000000000	0.00000000000000	0.00000000000000	0.00000000000000	0.00000000000000	14.01775800000000	0.00000000000000	0.00000000000000	0.00000000000000	0.00000000000000	
12.93661800000000	7.74113200000000	716.55587100000002	38.75174200000000	0.19269400000000	0.00000000000000	0.11097400000000	0.00000000000000	0.00000000000000	0.00000000000000	0.00000000000000	0.00000000000000	0.00000000000000	0.00000000000000	14.10070200000000	0.00000000000000	0.00000000000000	0.00000000000000	0.00000000000000	
12.93828000000000	7.20513200000000	718.21066399999995	38.81142900000000	0.19149400000000	0.00000000000000	0.11095200000000	0.00000000000000	0.00000000000000	0.00000000000000	0.00000000000000	0.00000000000000	0.00000000000000	0.00000000000000	14.18463700000000	0.00000000000000	0.00000000000000	0.00000000000000	0.00000000000000	
12.93994800000000	6.66205300000000	719.91742099999999	38.87220400000000	0.19029600000000	0.00000000000000	0.11093000000000	0.00000000000000	0.00000000000000	0.00000000000000	0.00000000000000	0.00000000000000	0.00000000000000	0.00000000000000	14.26948400000000	0.00000000000000	0.00000000000000	0.00000000000000	0.00000000000000	
12.94161600000000	6.11221100000000	721.67568600000004	38.93411400000000	0.18910100000000	0.00000000000000	0.11090800000000	0.00000000000000	0.00000000000000	0.00000000000000	0.00000000000000	0.00000000000000	0.00000000000000	0.00000000000000	14.35516700000000	0.00000000000000	0.00000000000000	0.00000000000000	0.00000000000000	
12.94328700000000	5.55593000000000	723.48494300000004	38.99721300000000	0.18791000000000	0.00000000000000	0.11088500000000	0.00000000000000	0.00000000000000	0.00000000000000	0.00000000000000	0.00000000000000	0.00000000000000	0.00000000000000	14.44160900000000	0.00000000000000	0.00000000000000	0.00000000000000	0.00000000000000	
12.94495100000000	4.99353800000000	725.34460700000000	39.06156800000000	0.18672400000000	0.00000000000000	0.11086100000000	0.00000000000000	0.00000000000000	0.00000000000000	0.00000000000000	0.00000000000000	0.00000000000000	0.00000000000000	14.52873000000000	0.00000000000000	0.00000000000000	0.00000000000000	0.00000000000000	
12.94663400000000	4.42536800000000	727.25402599999995	39.12725100000000	0.18554300000000	0.00000000000000	0.11083700000000	0.00000000000000	0.00000000000000	0.00000000000000	0.00000000000000	0.00000000000000	0.00000000000000	0.00000000000000	14.61645300000000	0.00000000000000	0.00000000000000	0.00000000000000	0.00000000000000	
12.94828400000000	3.85175900000000	729.21246499999995	39.19434300000000	0.18436900000000	0.00000000000000	0.11081200000000	0.00000000000000	0.00000000000000	0.00000000000000	0.00000000000000	0.00000000000000	0.00000000000000	0.00000000000000	14.70469600000000	0.00000000000000	0.00000000000000	0.00000000000000	0.00000000000000	
12.94994900000000	3.27305100000000	731.21910900000000	39.26293200000000	0.18320100000000	0.00000000000000	0.11078700000000	0.00000000000000	0.00000000000000	0.00000000000000	0.00000000000000	0.00000000000000	0.00000000000000	0.00000000000000	14.79338000000000	0.00000000000000	0.00000000000000	0.00000000000000	0.00000000000000	
12.95162000000000	2.68959100000000	733.27305100000001	39.33311200000000	0.18204100000000	0.00000000000000	0.11076100000000	0.00000000000000	0.00000000000000	0.00000000000000	0.00000000000000	0.00000000000000	0.00000000000000	0.00000000000000	14.88242200000000	0.00000000000000	0.00000000000000	0.00000000000000	0.00000000000000	
12.95328900000000	2.10172600000000	735.37329000000000	39.40497900000000	0.18088700000000	0.00000000000000	0.11073500000000	0.00000000000000	0.00000000000000	0.00000000000000	0.00000000000000	0.00000000000000	0.00000000000000	0.00000000000000	14.97173700000000	0.00000000000000	0.00000000000000	0.00000000000000	0.00000000000000	
12.95495100000000	1.50980700000000	737.51872600000002	39.47863600000000	0.17974200000000	0.00000000000000	0.11070900000000	0.00000000000000	0.00000000000000	0.00000000000000	0.00000000000000	0.00000000000000	0.00000000000000	0.00000000000000	15.06124100000000	0.00000000000000	0.00000000000000	0.00000000000000	0.00000000000000	
